HIERARCHY
ROOT Hips
{
 OFFSET 0.000000 0.000000 0.000000
 CHANNELS 6 Xposition Yposition Zposition Yrotation Xrotation Zrotation
 JOINT Chest
 {
  OFFSET 0.000000 9.585900 0.002600
  CHANNELS 3 Yrotation Xrotation Zrotation
  JOINT Chest2
  {
   OFFSET 0.000000 9.601200 -0.005300
   CHANNELS 3 Yrotation Xrotation Zrotation
   JOINT Chest3
   {
    OFFSET 0.000000 9.561800 0.000000
    CHANNELS 3 Yrotation Xrotation Zrotation
    JOINT Chest4
    {
     OFFSET 0.000000 9.552100 0.000000
     CHANNELS 3 Yrotation Xrotation Zrotation
     JOINT Neck
     {
      OFFSET 0.000000 14.453000 0.000000
      CHANNELS 3 Yrotation Xrotation Zrotation
      JOINT Head
      {
       OFFSET 0.000000 8.936500 -0.011300
       CHANNELS 3 Yrotation Xrotation Zrotation
       End Site
       {
        OFFSET 0.000000 17.073600 -0.006000
       }
      }
     }
     JOINT RightCollar
     {
      OFFSET -2.921100 9.558500 0.000000
      CHANNELS 3 Yrotation Xrotation Zrotation
      JOINT RightShoulder
      {
       OFFSET -13.519700 0.000000 0.000000
       CHANNELS 3 Yrotation Xrotation Zrotation
       JOINT RightElbow
       {
        OFFSET 0.000000 -29.696600 0.000000
        CHANNELS 3 Yrotation Xrotation Zrotation
        JOINT RightWrist
        {
         OFFSET 0.000000 -24.004700 0.000000
         CHANNELS 3 Yrotation Xrotation Zrotation
         End Site
         {
          OFFSET 0.000000 -17.728500 0.000000
         }
        }
       }
      }
     }
     JOINT LeftCollar
     {
      OFFSET 2.921100 9.558500 0.000000
      CHANNELS 3 Yrotation Xrotation Zrotation
      JOINT LeftShoulder
      {
       OFFSET 13.519700 0.000000 0.000000
       CHANNELS 3 Yrotation Xrotation Zrotation
       JOINT LeftElbow
       {
        OFFSET 0.000000 -29.696600 0.000000
        CHANNELS 3 Yrotation Xrotation Zrotation
        JOINT LeftWrist
        {
         OFFSET 0.000000 -24.004700 0.000000
         CHANNELS 3 Yrotation Xrotation Zrotation
         End Site
         {
          OFFSET 0.000000 -17.728500 0.000000
         }
        }
       }
      }
     }
    }
   }
  }
 }
 JOINT RightHip
 {
  OFFSET -7.771700 -0.012900 -0.001300
  CHANNELS 3 Yrotation Xrotation Zrotation
  JOINT RightKnee
  {
   OFFSET 0.000000 -40.869800 0.001200
   CHANNELS 3 Yrotation Xrotation Zrotation
   JOINT RightAnkle
   {
    OFFSET 0.000000 -39.717900 0.002100
    CHANNELS 3 Yrotation Xrotation Zrotation
    JOINT RightToe
    {
     OFFSET 0.000000 -4.965400 11.033500
     CHANNELS 3 Yrotation Xrotation Zrotation
     End Site
     {
      OFFSET 0.000000 -1.423100 5.872300
     }
    }
   }
  }
 }
 JOINT LeftHip
 {
  OFFSET 7.771700 -0.012900 -0.001300
  CHANNELS 3 Yrotation Xrotation Zrotation
  JOINT LeftKnee
  {
   OFFSET 0.000000 -40.869800 0.001200
   CHANNELS 3 Yrotation Xrotation Zrotation
   JOINT LeftAnkle
   {
    OFFSET 0.000000 -39.717900 0.002100
    CHANNELS 3 Yrotation Xrotation Zrotation
    JOINT LeftToe
    {
     OFFSET 0.000000 -4.965400 11.033500
     CHANNELS 3 Yrotation Xrotation Zrotation
     End Site
     {
      OFFSET 0.000000 -1.423100 5.872300
     }
    }
   }
  }
 }
}
MOTION
Frames: 8
Frame Time: 0.008333
0.000000 85.388000 0.000000 0.000000 -5.767877 0.000000 0.000000 11.653817 0.000000 0.000000 -5.885947 0.000000 0.000000 -0.000000 0.000000 0.000000 -0.000000 0.000000 0.000000 12.528835 0.000000 0.000000 0.711642 0.000000 0.000000 -0.000000 0.000000 0.000000 0.000000 -90.000000 0.000000 -2.309062 0.000000 0.000000 2.309062 0.000000 0.000000 -0.000000 0.000000 0.000000 -0.000000 90.000000 0.000000 -2.309062 0.000000 0.000000 2.309062 0.000000 0.000000 8.520406 0.000000 0.000000 1.905762 0.000000 -0.000000 -4.658285 0.000000 0.000000 -0.000000 0.000000 0.000000 8.520406 0.000000 0.000000 1.905762 0.000000 -0.000000 -4.658285 0.000000 0.000000 -0.000000 0.000000
-22.120367 55.244941 9.776860 -176.580083 -16.928924 -1.741125 -0.149068 16.605075 0.860680 -0.022952 1.692605 0.108519 -0.050995 2.817185 0.186909 -0.102258 14.670169 0.940193 1.279030 13.259043 -3.220177 2.181280 -11.698209 -3.636105 0.760553 0.674483 1.736804 0.298109 -8.555610 -9.209929 -98.451473 -74.417302 124.244942 -7.831038 -2.791495 -0.763775 -6.774424 -2.033712 1.399914 -1.216036 -12.881048 10.411611 62.434322 -59.354048 -107.853062 3.860687 -6.664888 -0.138507 -0.679823 -58.010646 10.909362 -100.601118 87.816169 -105.836277 -10.790312 -23.038245 14.565796 0.036930 -0.075385 0.000469 11.099460 -54.230751 -7.099792 109.412577 77.474783 106.205066 -8.958384 -24.528949 3.222824 0.052956 0.221012 0.030476
-22.120063 55.244197 9.775192 -176.578469 -16.919273 -1.739870 -0.147176 16.598882 0.858722 -0.022585 1.692575 0.108355 -0.020404 2.840782 0.176616 -0.104864 14.656017 0.940978 1.321364 13.277628 -3.170910 2.209605 -11.683383 -3.594063 0.746875 0.649035 1.753373 0.280209 -8.622934 -9.224881 -98.851099 -74.219757 124.709541 -7.925667 -2.974458 -0.798130 -6.802908 -2.063809 1.413220 -1.228356 -12.873961 10.427725 62.416305 -59.348877 -107.848700 3.856772 -6.665854 -0.147001 -0.674867 -58.020280 10.906755 -100.750035 87.822608 -105.986919 -10.807141 -23.045105 14.572739 0.012029 -0.075780 0.000903 11.095279 -54.240369 -7.095746 109.436951 77.478107 106.224028 -8.962624 -24.532662 3.223239 0.057349 0.221353 0.031769
-22.120120 55.243485 9.773143 -176.580950 -16.911098 -1.734121 -0.133337 16.602856 0.853139 -0.021132 1.693032 0.107889 -0.021674 2.841048 0.181508 -0.090021 14.658702 0.931262 1.362144 13.292112 -3.124933 2.234440 -11.668849 -3.552475 0.760779 0.633930 1.761210 0.236205 -8.701095 -9.237974 -99.191710 -73.979417 125.126797 -8.033296 -3.151423 -0.814990 -6.829762 -2.084185 1.429259 -1.242683 -12.883259 10.435925 62.398667 -59.341388 -107.824861 3.855891 -6.666703 -0.146815 -0.663803 -58.028142 10.904938 -100.823588 87.822683 -106.056181 -10.865308 -23.052335 14.585462 0.013549 -0.067573 0.003150 11.101832 -54.248573 -7.100461 109.460474 77.480769 106.244908 -8.966867 -24.531283 3.226903 0.052717 0.218502 0.029419
-22.120602 55.242784 9.771200 -176.580511 -16.902816 -1.725562 -0.123901 16.605703 0.849524 -0.020336 1.693705 0.107870 -0.026840 2.841127 0.183082 -0.076121 14.662581 0.929302 1.437619 13.328452 -3.057947 2.187838 -11.694237 -3.566729 0.764725 0.625394 1.759421 0.206571 -8.784643 -9.257770 -99.467110 -73.701200 125.491680 -8.156076 -3.331582 -0.823438 -6.846907 -2.124864 1.422076 -1.286996 -12.905346 10.458763 62.336705 -59.325974 -107.752746 3.850164 -6.666670 -0.151261 -0.650440 -58.036441 10.895204 -100.901504 87.822844 -106.133514 -10.896439 -23.060726 14.592915 0.008257 -0.062256 0.004681 11.108760 -54.255377 -7.107131 109.484796 77.485376 106.261321 -8.977821 -24.528985 3.238352 0.060127 0.214863 0.026401
-22.119575 55.241913 9.770407 -176.587266 -16.888955 -1.722854 -0.116131 16.604055 0.852734 -0.019451 1.693704 0.107682 -0.023165 2.840219 0.184063 -0.060002 14.677193 0.929419 1.478581 13.337754 -3.013287 2.170497 -11.705370 -3.568924 0.766820 0.610843 1.754097 0.176644 -8.870375 -9.278892 -99.725724 -73.398099 125.856768 -8.295900 -3.519589 -0.842244 -6.865096 -2.175989 1.409194 -1.300708 -12.887091 10.477784 62.325958 -59.341798 -107.789532 3.851031 -6.666956 -0.124709 -0.641705 -58.051485 10.898451 -100.921184 87.821619 -106.156597 -10.893792 -23.064441 14.594778 -0.007371 -0.061579 0.003887 11.110741 -54.267994 -7.101193 109.491151 77.490161 106.261686 -8.977386 -24.533848 3.236901 0.055553 0.219641 0.028242
-22.119602 55.241406 9.769167 -176.587105 -16.880727 -1.715966 -0.111247 16.604013 0.853339 -0.019179 1.694508 0.107351 -0.025030 2.844215 0.182913 -0.060890 14.670926 0.926377 1.510636 13.352064 -2.988446 2.273971 -11.653131 -3.499447 0.772669 0.610516 1.751520 0.159140 -8.947408 -9.303682 -100.041446 -73.085126 126.292821 -8.450308 -3.717713 -0.881993 -6.865665 -2.206256 1.386957 -1.335485 -12.895105 10.501669 62.280337 -59.342879 -107.746948 3.843158 -6.655114 -0.125443 -0.631725 -58.060898 10.890506 -101.009662 87.818268 -106.254068 -10.869246 -23.068855 14.594426 0.029321 -0.065156 0.008154 11.112848 -54.273601 -7.104959 109.490806 77.494721 106.257195 -8.985664 -24.535569 3.237735 0.057907 0.222439 0.029560
-22.119852 55.240727 9.769471 -176.587788 -16.865956 -1.707530 -0.106004 16.614501 0.856091 -0.021847 1.681332 0.102905 -0.024441 2.846902 0.182006 -0.061317 14.662825 0.923349 1.517949 13.352065 -2.979815 2.359923 -11.609703 -3.449676 0.776957 0.610408 1.750476 0.144119 -9.024424 -9.328694 -100.448315 -72.782930 126.820784 -8.612385 -3.942445 -0.933581 -6.875519 -2.236060 1.369732 -1.370578 -12.933209 10.526274 62.188936 -59.325879 -107.649827 3.836433 -6.641477 -0.134725 -0.617874 -58.079435 10.876622 -101.120525 87.815954 -106.370351 -10.842338 -23.067759 14.586978 0.032375 -0.075258 0.013472 11.118845 -54.286014 -7.114386 109.471951 77.496362 106.235993 -8.997228 -24.533603 3.236457 0.067318 0.224874 0.031665
